<svg width="175" height="30" viewBox="0 0 175 30" fill="none" xmlns="http://www.w3.org/2000/svg">
<path d="M8.34825 9.84909H3.38976L2.68787 11.6636H0L4.5283 0.213501H7.21618L11.7445 11.6636H9.06308L8.34825 9.84909ZM7.53963 7.78224L5.86739 3.57738L4.21456 7.78224H7.53963Z" fill="white"/>
<path d="M14.0312 0.200562H16.4151L21.7714 7.6011V0.200562H24.1714V11.6636H21.7714L16.4151 4.25016V11.6636H14.0312V0.200562Z" fill="white"/>
<path d="M30 2.4162H26.5326V0.200562H35.8706V2.4162H32.4V11.6636H30V2.4162Z" fill="white"/>
<path d="M47.7736 0.200562V11.6636H45.3833V6.91539H40.3149V11.6636H37.944V0.200562H40.3246V4.69976H45.3833V0.200562H47.7736Z" fill="white"/>
<path d="M49.821 5.91591C49.8242 4.74563 50.1743 3.60256 50.8269 2.63116C51.4795 1.65975 52.4055 0.9036 53.4877 0.458265C54.5699 0.0129292 55.7599 -0.101606 56.9072 0.129134C58.0545 0.359873 59.1077 0.92553 59.9336 1.75462C60.7595 2.58372 61.3212 3.63904 61.5475 4.78722C61.7739 5.9354 61.6548 7.12491 61.2053 8.20544C60.7559 9.28597 59.9962 10.209 59.0223 10.8579C58.0484 11.5068 56.904 11.8525 55.7337 11.8512C54.1687 11.8285 52.6746 11.1952 51.57 10.0864C50.4654 8.97754 49.8378 7.48096 49.821 5.91591ZM59.2011 5.91591C59.2011 3.93316 57.613 2.23181 55.7305 2.23181C53.848 2.23181 52.2793 3.93316 52.2793 5.91591C52.2793 7.89866 53.8739 9.61618 55.7337 9.61618C57.5936 9.61618 59.2076 7.91483 59.2076 5.91591H59.2011Z" fill="white"/>
<path d="M63.6841 0.200562H66.0647L71.4307 7.6011V0.200562H73.8469V11.6636H71.4469L66.0647 4.25016V11.6636H63.6841V0.200562Z" fill="white"/>
<path d="M80.2059 7.51701L75.8458 0.200562H78.634L81.4059 5.21728L84.2911 0.200562H86.966L82.6221 7.51701V11.6636H80.2059V7.51701Z" fill="white"/>
<path d="M94.3634 0.200562H100.004C102 0.200562 103.378 1.39733 103.378 3.06633C103.392 3.5959 103.252 4.11818 102.976 4.57035C102.7 5.02252 102.299 5.38532 101.822 5.61512C103.116 6.21674 103.863 7.28412 103.863 8.55205C103.863 10.3828 102.34 11.6507 100.218 11.6507H94.3634V0.200562ZM99.3995 4.8162C100.292 4.8162 100.923 4.2825 100.923 3.54827C100.923 2.81404 100.276 2.29975 99.3995 2.29975H96.7472V4.8162H99.3995ZM99.7715 9.55151C100.742 9.55151 101.408 8.96606 101.408 8.15097C101.408 7.33587 100.729 6.75043 99.7715 6.75043H96.7472V9.55151H99.7715Z" fill="white"/>
<path d="M106.435 0.200562H108.835V11.6636H106.435V0.200562Z" fill="white"/>
<path d="M111.425 5.91591C111.447 4.35368 112.077 2.86155 113.182 1.75678C114.287 0.652011 115.779 0.0217472 117.341 0C118.156 0.00217234 118.961 0.17349 119.706 0.503102C120.451 0.832714 121.12 1.31344 121.669 1.91483L119.935 3.53208C119.624 3.14104 119.232 2.82266 118.785 2.59918C118.338 2.37571 117.847 2.25254 117.348 2.23828C115.485 2.23828 113.897 3.93963 113.897 5.92238C113.897 7.90513 115.485 9.62265 117.348 9.62265C117.847 9.60838 118.338 9.48521 118.785 9.26174C119.232 9.03827 119.624 8.71988 119.935 8.32885L121.669 9.9461C121.117 10.545 120.449 11.0243 119.704 11.3542C118.96 11.6841 118.156 11.8577 117.341 11.8642C115.775 11.839 114.28 11.2032 113.175 10.0922C112.07 8.98118 111.442 7.48274 111.425 5.91591V5.91591Z" fill="white"/>
<path d="M134.083 0.200562V11.6636H131.699V6.91539H126.628V11.6636H124.244V0.200562H126.628V4.69976H131.699V0.200562H134.083Z" fill="white"/>
<path d="M145.064 9.84909H140.106L139.391 11.6636H136.716L141.244 0.213501H143.916L148.444 11.6636H145.753L145.064 9.84909ZM144.236 7.78224L142.583 3.57738L140.93 7.78224H144.236Z" fill="white"/>
<path d="M157.857 11.6636L155.311 7.9472H153.545V11.6636H151.152V0.200562H156.162C158.575 0.200562 160.367 1.7984 160.367 4.06579C160.38 4.85424 160.142 5.62642 159.687 6.27068C159.232 6.91493 158.585 7.39786 157.837 7.64962L160.58 11.6636H157.857ZM153.545 5.68304H155.91C157.093 5.68304 157.905 5.03614 157.905 4.06579C157.905 3.09544 157.093 2.44854 155.91 2.44854H153.545V5.68304Z" fill="white"/>
<path d="M171.458 9.84909H166.499L165.784 11.6636H163.119L167.648 0.213501H170.319L174.848 11.6636H172.176L171.458 9.84909ZM170.63 7.78224L168.977 3.57738L167.324 7.78224H170.63Z" fill="white"/>
<path d="M28.5637 26.0183C28.5637 24.1197 29.6926 22.8938 31.4392 22.8938C32.8268 22.8938 33.8845 23.696 34.0883 24.9024H33.2829C33.1698 24.507 32.9259 24.1617 32.5909 23.9231C32.2559 23.6845 31.8498 23.5668 31.4392 23.5892C30.1907 23.5892 29.382 24.5596 29.382 26.0183C29.382 27.4771 30.181 28.4539 31.4424 28.4539C32.3804 28.4539 33.0597 28.027 33.2829 27.2863H34.0624C33.768 28.483 32.8236 29.1493 31.4133 29.1493C29.6602 29.1493 28.5637 27.9364 28.5637 26.0183Z" fill="white"/>
<path d="M42.0063 26.0248C42.0063 27.9461 40.8742 29.1493 39.0661 29.1493C37.2581 29.1493 36.126 27.9461 36.126 26.0248C36.126 24.1035 37.2581 22.8938 39.0661 22.8938C40.8742 22.8938 42.0063 24.1003 42.0063 26.0248ZM36.9443 26.0248C36.9443 27.5127 37.7626 28.4539 39.0661 28.4539C40.3696 28.4539 41.1783 27.5127 41.1783 26.0248C41.1783 24.5369 40.3599 23.5892 39.0532 23.5892C37.7465 23.5892 36.9443 24.5305 36.9443 26.0248Z" fill="white"/>
<path d="M45.1599 26.8658C45.1599 27.7811 45.8068 28.4442 46.9001 28.4442C47.9934 28.4442 48.637 27.7973 48.637 26.8658V22.9844H49.4327V26.9175C49.4327 28.2113 48.4818 29.1396 46.9001 29.1396C45.3184 29.1396 44.3643 28.2081 44.3643 26.9175V22.9844H45.1599V26.8658Z" fill="white"/>
<path d="M52.8225 29.0491H52.0269V22.9844H54.4398C55.6689 22.9844 56.4743 23.6992 56.4743 24.7892C56.4873 25.1825 56.3663 25.5685 56.1313 25.884C55.8962 26.1996 55.561 26.426 55.1805 26.5262L56.6587 29.0394H55.7336L54.3686 26.6426H52.8225V29.0491ZM52.8225 25.986H54.3492C55.1676 25.986 55.643 25.5655 55.643 24.8248C55.643 24.0841 55.1482 23.6669 54.3266 23.6669H52.8225V25.986Z" fill="white"/>
<path d="M60.443 29.0491V23.6733H58.4312V22.9844H63.2506V23.6636H61.2322V29.0394L60.443 29.0491Z" fill="white"/>
<path d="M65.4565 29.0491V22.9844H66.2522V29.0394L65.4565 29.0491Z" fill="white"/>
<path d="M72.8053 29.0491H68.8528V22.9844H72.8053V23.6636H69.642V25.6043H72.6339V26.2739H69.642V28.3569H72.7989L72.8053 29.0491Z" fill="white"/>
<path d="M76.014 29.0491H75.2183V22.9844H77.6118C78.8409 22.9844 79.6463 23.6992 79.6463 24.7892C79.6593 25.1825 79.5383 25.5685 79.3033 25.884C79.0682 26.1996 78.733 26.426 78.3525 26.5262L79.8307 29.0394H78.8959L77.5309 26.6426H76.014V29.0491ZM76.014 25.986H77.5406C78.359 25.986 78.8344 25.5655 78.8344 24.8248C78.8344 24.0841 78.3396 23.6669 77.518 23.6669H76.014V25.986Z" fill="white"/>
<path d="M85.229 29.0491V22.9844H86.0247V29.0394L85.229 29.0491Z" fill="white"/>
<path d="M94.1693 29.0491V24.3817H94.1402L92.1057 29.007H91.4329L89.3984 24.3817H89.3725V29.0491H88.6318V22.9844H89.5537L91.7564 28.0367H91.792L93.9882 22.9844H94.9132V29.0394L94.1693 29.0491Z" fill="white"/>
<path d="M103.064 29.0491V24.3817H103.032L100.997 29.007H100.328L98.2931 24.3817H98.2608V29.0491H97.5168V22.9844H98.429L100.632 28.0367H100.693L102.883 22.9844H103.805V29.0394L103.064 29.0491Z" fill="white"/>
<path d="M112.046 26.0248C112.046 27.9461 110.914 29.1493 109.106 29.1493C107.298 29.1493 106.166 27.9461 106.166 26.0248C106.166 24.1035 107.298 22.8938 109.106 22.8938C110.914 22.8938 112.046 24.1003 112.046 26.0248ZM106.984 26.0248C106.984 27.5127 107.799 28.4539 109.106 28.4539C110.413 28.4539 111.228 27.5127 111.228 26.0248C111.228 24.5369 110.41 23.5892 109.106 23.5892C107.803 23.5892 106.984 24.5305 106.984 26.0248V26.0248Z" fill="white"/>
<path d="M114.404 29.0491V22.9844H116.824C117.914 22.9844 118.654 23.5892 118.654 24.4949C118.649 24.8081 118.536 25.1099 118.336 25.3505C118.135 25.5911 117.859 25.7559 117.551 25.8178V25.8501C118.418 25.9569 118.975 26.5359 118.975 27.3413C118.975 28.4054 118.172 29.0394 116.814 29.0394L114.404 29.0491ZM115.2 25.6043H116.394C117.335 25.6043 117.849 25.2485 117.849 24.5919C117.849 23.9935 117.416 23.6604 116.639 23.6604H115.2V25.6043ZM116.694 28.3828C117.665 28.3828 118.156 28.014 118.156 27.3121C118.156 26.6103 117.636 26.2545 116.62 26.2545H115.2V28.3828H116.694Z" fill="white"/>
<path d="M121.242 29.0491V22.9844H122.041V29.0394L121.242 29.0491Z" fill="white"/>
<path d="M128.51 29.0491H124.629V22.9844H125.424V28.3601H128.51V29.0491Z" fill="white"/>
<path d="M130.755 29.0491V22.9844H131.55V29.0394L130.755 29.0491Z" fill="white"/>
<path d="M138.104 29.0491H134.148V22.9844H138.104V23.6636H134.943V25.6043H137.939V26.2739H134.943V28.3569H138.104V29.0491Z" fill="white"/>
<path d="M141.312 29.0491H140.516V22.9844H142.907C144.136 22.9844 144.941 23.6992 144.941 24.7892C144.954 25.1825 144.833 25.5685 144.598 25.884C144.363 26.1996 144.028 26.426 143.647 26.5262L145.122 29.0394H144.191L142.823 26.6426H141.299L141.312 29.0491ZM141.312 25.986H142.835C143.654 25.986 144.129 25.5655 144.129 24.8248C144.129 24.0841 143.634 23.6669 142.813 23.6669H141.322L141.312 25.986Z" fill="white"/>
</svg>
